<svg width="891" height="388" viewBox="0 0 891 388" fill="none" xmlns="http://www.w3.org/2000/svg">
<path d="M119.67 2.11071C120.413 1.00614 121.657 0.34375 122.988 0.34375H765.846C769.049 0.34375 770.953 3.91974 769.165 6.57678L650.689 182.652C649.946 183.757 648.702 184.419 647.37 184.419L4.51263 184.419C1.31008 184.419 -0.593887 180.843 1.19396 178.186L119.67 2.11071Z" fill="url(#paint0_linear_3592_1449)"/>
<path d="M120.085 2.38984C120.735 1.42334 121.824 0.84375 122.988 0.84375H765.846C768.648 0.84375 770.314 3.97274 768.75 6.29766L650.274 182.373C649.624 183.339 648.535 183.919 647.37 183.919L4.51263 183.919C1.7104 183.919 0.0444283 180.79 1.6088 178.465L120.085 2.38984Z" stroke="white" stroke-opacity="0.2"/>
<path d="M771.683 205.076C770.94 203.971 769.696 203.309 768.364 203.309H331.007C327.804 203.309 325.9 206.885 327.688 209.542L446.164 385.617C446.907 386.721 448.151 387.384 449.483 387.384L886.84 387.383C890.043 387.383 891.947 383.807 890.159 381.15L771.683 205.076Z" fill="url(#paint1_linear_3592_1449)"/>
<path d="M768.364 203.809C769.529 203.809 770.618 204.388 771.268 205.355L889.744 381.43C891.308 383.754 889.642 386.883 886.84 386.883L449.483 386.884C448.318 386.884 447.229 386.304 446.579 385.338L328.103 209.262C326.539 206.938 328.205 203.809 331.007 203.809H768.364Z" stroke="white" stroke-opacity="0.2"/>
<path d="M528.849 235.499C553.538 235.499 566.628 245.11 566.628 265.656C566.628 279.741 558.012 288.523 545.253 291.174V293.494C559.834 295.482 570.605 302.607 570.605 320.503C570.605 341.215 556.023 351.488 530.837 351.488H466.712V235.499H528.849ZM497.366 326.633H525.369C535.145 326.633 539.453 323.651 539.453 315.532C539.453 307.247 535.145 304.264 526.695 304.264H497.366V326.633ZM497.366 281.729H522.552C531.5 281.729 535.477 278.746 535.477 270.793C535.477 263.336 531.831 260.354 523.381 260.354H497.366V281.729ZM630.611 353.477C602.442 353.477 583.553 341.546 583.553 309.235C583.553 277.089 602.442 265.159 630.114 265.159C657.62 265.159 676.013 277.089 676.013 309.235L675.847 315.366H613.213C614.373 329.285 619.509 332.267 630.611 332.267C642.044 332.267 645.524 328.953 647.015 320.503L675.018 325.308C670.876 345.523 653.809 353.477 630.611 353.477ZM613.71 298.63H646.85C646.021 287.694 639.228 285.54 630.114 285.54C621.498 285.54 614.538 287.86 613.71 298.63ZM685.292 289.517V267.148H698.548L709.981 242.79H726.551V267.148H767.81V289.517H726.551V319.674C726.551 327.959 729.036 331.107 735.996 331.107C744.446 331.107 745.441 326.136 746.269 311.058L773.775 315.2C772.781 338.895 761.513 353.477 734.173 353.477C711.969 353.477 697.222 342.706 697.222 319.343V289.517H685.292Z" fill="black"/>
<path d="M194.305 20.3193C217.503 20.3193 234.57 31.4212 234.57 53.9562C234.57 70.1947 225.457 79.971 210.875 83.2849V85.6047C219.326 88.4216 224.628 96.0438 230.925 110.46L243.186 136.309H208.721L191.488 96.2095H162.491V136.309H131.837V20.3193H194.305ZM162.491 73.1773H189.831C198.116 73.1773 203.419 69.6976 203.419 59.2586C203.419 49.4823 198.116 46.0027 189.831 46.0027H162.491V73.1773ZM283.061 138.297C265.332 138.297 252.573 129.846 252.573 110.625C252.573 91.4042 265.332 84.1134 283.724 84.1134C295.158 84.1134 304.437 87.096 310.07 91.9013H312.225V85.1076C312.225 75.3314 309.408 71.0232 299.3 71.0232C291.844 71.0232 286.541 72.3488 285.381 80.1367L256.715 75.4971C260.195 57.2702 275.108 49.9794 298.969 49.9794C326.309 49.9794 341.553 60.9156 341.553 87.7588V136.309H313.384L312.225 122.887H310.236C306.094 132.829 296.815 138.297 283.061 138.297ZM281.57 108.968C281.57 114.602 284.718 116.59 292.672 116.59C299.797 116.59 307.088 114.933 312.225 111.785V105.157C306.756 102.672 299.963 101.18 292.672 101.18C285.547 101.18 281.57 102.837 281.57 108.968ZM390.064 51.9678L391.224 65.3894H393.378C397.521 54.7847 406.965 49.9794 420.884 49.9794C438.448 49.9794 450.213 58.2644 450.213 82.125V136.309H420.884V87.2617C420.884 76.657 416.576 73.1773 407.96 73.1773C401.166 73.1773 395.532 75.6628 391.224 80.3024V136.309H361.895V51.9678H390.064ZM528.46 77.8169C528.46 71.686 525.312 68.7034 513.382 68.7034C501.12 68.7034 498.137 71.686 498.137 77.8169C498.137 84.6105 501.12 87.2617 513.382 87.2617C525.312 87.2617 528.46 84.6105 528.46 77.8169ZM464.666 150.724C464.666 141.942 470.134 136.971 479.413 135.646V132.829C471.791 130.509 468.146 125.704 468.146 117.916C468.146 108.637 473.614 103.832 482.562 102.34V99.5234C473.448 95.381 468.312 88.4216 468.312 77.8169C468.312 56.9388 487.864 49.9794 513.382 49.9794C518.85 49.9794 524.484 50.3108 529.786 51.305C531.94 34.7351 544.202 31.4212 559.612 31.4212L561.103 55.1161C555.304 54.9504 547.681 54.9504 540.391 55.9446V58.5958C550.167 60.7499 557.623 68.0406 557.623 78.9768C557.623 99.192 538.402 104.66 513.382 104.66C507.582 104.66 502.28 104.329 497.475 103.666C496.646 105.157 496.149 106.814 496.149 108.305C496.149 111.288 498.635 112.448 504.434 112.614L530.117 113.608C548.676 114.271 563.588 121.396 563.588 140.948C563.588 162.489 546.356 171.437 511.062 171.437C478.419 171.437 464.666 164.477 464.666 150.724ZM492.007 144.262C492.007 150.393 495.321 152.547 511.89 152.547C530.614 152.547 533.266 150.559 533.266 144.428C533.266 140.285 529.952 138.96 523.986 138.794L493.995 137.634C492.669 139.788 492.007 141.942 492.007 144.262ZM617.749 138.297C589.58 138.297 570.69 126.367 570.69 94.0554C570.69 61.9098 589.58 49.9794 617.252 49.9794C644.758 49.9794 663.15 61.9098 663.15 94.0554L662.985 100.186H600.35C601.51 114.105 606.647 117.088 617.749 117.088C629.182 117.088 632.662 113.774 634.153 105.323L662.156 110.128C658.014 130.343 640.947 138.297 617.749 138.297ZM600.847 83.4506H633.987C633.159 72.5145 626.365 70.3604 617.252 70.3604C608.635 70.3604 601.676 72.6802 600.847 83.4506Z" fill="black"/>
<defs>
<linearGradient id="paint0_linear_3592_1449" x1="462" y1="0.000162036" x2="605.043" y2="254.212" gradientUnits="userSpaceOnUse">
<stop stop-color="#B0FF09"/>
<stop offset="1" stop-color="#05B8F1"/>
</linearGradient>
<linearGradient id="paint1_linear_3592_1449" x1="881" y1="380" x2="434.994" y2="638.351" gradientUnits="userSpaceOnUse">
<stop stop-color="#B0FF09"/>
<stop offset="1" stop-color="#05B8F1"/>
</linearGradient>
</defs>
</svg>
